<svg width="248" height="48" viewBox="0 0 248 48" fill="none" xmlns="http://www.w3.org/2000/svg">
<path d="M72.8435 48H80.7976L77.2392 28.0678V20.1356L41.2361 0L0 20.339L18.6295 31.9322V24.2034C26.8349 19.6475 35.4449 19.0508 38.7243 19.322C44.2503 19.322 54.0046 21.8983 58.191 23.1864V33.1525L57.7724 32.9492C37.259 25.8305 24.9091 29.6949 24.0718 29.8983C15.0711 32.7458 16.327 37.6271 16.1177 37.6271C18.4202 44.7458 31.6074 44.7458 33.0726 44.9492C44.2922 45.7627 55.749 42.4407 60.0749 40.678C60.0051 40.4746 59.7819 39.9051 59.447 39.2542C41.2361 44.339 28.6769 40.4746 26.3744 40.0678C22.6066 39.0508 21.9786 37.4237 21.9786 37.0169C22.3973 33.1525 35.3751 32.9492 38.0963 32.9492C47.4738 32.7864 57.6329 36.4068 61.5402 38.2373V20.339C49.3159 16.2712 41.2361 15.5254 38.7243 15.661C28.342 15.4983 19.0481 20.0678 15.699 22.3729V27.0508L6.27961 20.9492L41.2361 4.13793L74.518 21.5593L75.7739 28.0678L72.8435 48Z" fill="#1B68E4"/>
<path d="M79.5417 28.4746C79.5417 30.0472 78.2297 31.322 76.6112 31.322C74.9928 31.322 73.6807 30.0472 73.6807 28.4746C73.6807 26.902 74.9928 25.6271 76.6112 25.6271C78.2297 25.6271 79.5417 26.902 79.5417 28.4746Z" fill="#1B68E4"/>
<path d="M103.242 28.3151C104.418 28.5733 105.32 29.0435 105.946 29.7258C106.591 30.3897 106.914 31.3394 106.914 32.5749C106.914 33.5154 106.724 34.3268 106.345 35.0091C105.965 35.6729 105.443 36.2169 104.779 36.6411C104.134 37.0468 103.356 37.3511 102.445 37.5539C101.553 37.7383 100.594 37.8305 99.5695 37.8305H90.8015V18.6891H99.0855C103.925 18.6891 106.345 20.4225 106.345 23.8894C106.345 24.5717 106.269 25.1618 106.117 25.6597C105.965 26.1576 105.756 26.5817 105.491 26.9321C105.225 27.2824 104.893 27.5683 104.494 27.7896C104.115 28.0108 103.697 28.186 103.242 28.3151ZM95.0147 22.202V26.6278H99.2563C100.148 26.6278 100.86 26.4803 101.391 26.1852C101.942 25.8717 102.217 25.3093 102.217 24.4979C102.217 23.6681 101.951 23.078 101.42 22.7276C100.888 22.3772 100.11 22.202 99.0855 22.202H95.0147ZM95.0147 34.3176H99.5695C100.613 34.3176 101.401 34.1516 101.932 33.8197C102.483 33.4693 102.758 32.8792 102.758 32.0494C102.758 31.3671 102.521 30.8138 102.046 30.3897C101.591 29.9656 100.775 29.7535 99.5979 29.7535H95.0147V34.3176Z" fill="#1B68E4"/>
<path d="M109.984 37.8305V18.6891H114.197V37.8305H109.984Z" fill="#1B68E4"/>
<path d="M132.871 18.6891V22.6169H126.95V37.8305H122.765V22.6169H116.844V18.6891H132.871Z" fill="#1B68E4"/>
<path d="M135.532 37.8305V18.6891H139.745V37.8305H135.532Z" fill="#1B68E4"/>
<path d="M155.573 37.8305L151.588 31.6344H148.058V37.8305H143.845V18.6891H151.929C154.472 18.6891 156.418 19.27 157.765 20.4317C159.113 21.5751 159.786 23.1702 159.786 25.2171V25.2447C159.786 26.72 159.435 27.9555 158.733 28.9513C158.031 29.9287 156.997 30.6479 155.63 31.1089L160.27 37.8305H155.573ZM148.058 22.368V28.1215H151.929C153.068 28.1215 153.96 27.9094 154.605 27.4853C155.251 27.0427 155.573 26.2959 155.573 25.2447V25.2171C155.573 24.2028 155.251 23.4744 154.605 23.0319C153.96 22.5893 153.068 22.368 151.929 22.368H148.058Z" fill="#1B68E4"/>
<path d="M162.571 29.1726V18.6891H166.784V29.1726C166.784 30.1315 166.907 30.9337 167.154 31.5791C167.42 32.2245 167.761 32.7409 168.179 33.1281C168.615 33.5154 169.099 33.792 169.631 33.958C170.181 34.1239 170.75 34.2069 171.339 34.2069H171.367C171.955 34.2069 172.515 34.1239 173.047 33.958C173.597 33.792 174.081 33.5154 174.499 33.1281C174.935 32.7409 175.277 32.2245 175.523 31.5791C175.789 30.9337 175.922 30.1315 175.922 29.1726V18.6891H180.135V29.1726C180.135 30.7401 179.907 32.0955 179.452 33.2388C179.015 34.3637 178.399 35.2949 177.602 36.0325C176.823 36.7702 175.903 37.3142 174.84 37.6645C173.777 37.9965 172.62 38.1624 171.367 38.1624H171.339C170.086 38.1624 168.928 37.9965 167.866 37.6645C166.803 37.3142 165.873 36.7702 165.076 36.0325C164.298 35.2949 163.681 34.3637 163.225 33.2388C162.789 32.0955 162.571 30.7401 162.571 29.1726Z" fill="#1B68E4"/>
<path d="M182.115 18.6891H186.528L191.908 32.8239L197.26 18.6891H201.673L194.157 37.8305H189.631L182.115 18.6891Z" fill="#1B68E4"/>
<path d="M202.671 28.2598V28.2321C202.671 26.7938 202.899 25.466 203.354 24.2489C203.829 23.0319 204.503 21.99 205.376 21.1233C206.249 20.2565 207.311 19.5835 208.564 19.104C209.817 18.6061 211.23 18.3572 212.806 18.3572H212.834C214.144 18.3572 215.387 18.5416 216.563 18.9104C217.74 19.2607 218.793 19.8508 219.723 20.6807L217.417 23.7511C216.146 22.6999 214.618 22.1744 212.834 22.1744H212.806C211.895 22.1744 211.069 22.3311 210.329 22.6446C209.608 22.9581 208.991 23.3822 208.479 23.917C207.966 24.4518 207.568 25.088 207.283 25.8256C207.017 26.5633 206.884 27.3654 206.884 28.2321V28.2598C206.884 29.1265 207.017 29.9379 207.283 30.694C207.568 31.4316 207.966 32.077 208.479 32.6302C208.991 33.165 209.608 33.5891 210.329 33.9026C211.069 34.1977 211.895 34.3452 212.806 34.3452H212.834C213.802 34.3452 214.656 34.2069 215.396 33.9303C216.136 33.6537 216.81 33.2664 217.417 32.7685L219.723 35.8389C217.996 37.3879 215.7 38.1624 212.834 38.1624H212.806C211.23 38.1624 209.817 37.9227 208.564 37.4433C207.311 36.9454 206.249 36.2631 205.376 35.3963C204.503 34.5112 203.829 33.4693 203.354 32.2706C202.899 31.0536 202.671 29.7166 202.671 28.2598Z" fill="#1B68E4"/>
<path d="M222.325 18.6891H226.538V26.2959H235.477V18.6891H239.69V37.8305H235.477V30.1684H226.538V37.8305H222.325V18.6891Z" fill="#1B68E4"/>
<path d="M243.787 37.8305V18.6891H248V37.8305H243.787Z" fill="#1B68E4"/>
</svg>
