<svg
  width="25"
  height="25"
  viewBox="0 0 19 19"
  fill="none"
  xmlns="http://www.w3.org/2000/svg"
>
<path
    d="M9.5 0C4.256 0 0 4.256 0 9.5C0 14.744 4.256 19 9.5 19C14.744 19 19 14.744 19 9.5C19 4.256 14.744 0 9.5 0ZM9.5 2.85C11.077 2.85 12.35 4.123 12.35 5.7C12.35 7.277 11.077 8.55 9.5 8.55C7.923 8.55 6.65 7.277 6.65 5.7C6.65 4.123 7.923 2.85 9.5 2.85ZM9.5 16.34C7.125 16.34 5.0255 15.124 3.8 13.281C3.8285 11.3905 7.6 10.355 9.5 10.355C11.3905 10.355 15.1715 11.3905 15.2 13.281C13.9745 15.124 11.875 16.34 9.5 16.34Z"
    fill="#595959"
  />
</svg>
