<svg
  width="12"
  height="12"
  viewBox="0 0 14 14"
  fill="black"
  xmlns="http://www.w3.org/2000/svg"
>
<g clip-path="url(#clip0)">
<path
      d="M12.75 11.2478V1.25L12.3685 1.28198C10.8386 1.40845 9.33801 1.77417 7.92151 2.36597L7.25 2.64478V12.603L7.73901 12.3998C9.20483 11.7899 10.7568 11.4126 12.339 11.2812L12.75 11.2478Z"
      fill="black"
    />
<path
      d="M14.0001 2.72803H13.2501V11.478C13.2506 11.6084 13.1506 11.7173 13.0206 11.728L12.3804 11.7805C12.1956 11.7958 12.0112 11.8147 11.8276 11.8373C11.7681 11.8445 11.7089 11.854 11.6497 11.8623C11.5259 11.8788 11.4023 11.8955 11.2792 11.915C11.2074 11.9265 11.1361 11.9399 11.0646 11.9525C10.9543 11.9718 10.8439 11.991 10.7339 12.0127C10.6588 12.0277 10.5839 12.0446 10.5073 12.0608C10.4026 12.083 10.2979 12.1057 10.1938 12.1305C10.1158 12.149 10.0381 12.1687 9.96057 12.1885C9.85937 12.2135 9.75867 12.2405 9.65808 12.2686C9.57983 12.29 9.50159 12.3127 9.42358 12.3357C9.32361 12.3652 9.2251 12.3953 9.12634 12.4268C9.04907 12.4518 8.97168 12.4768 8.89465 12.5017C8.79578 12.535 8.69739 12.5695 8.59937 12.605C8.52441 12.6322 8.44934 12.6595 8.37268 12.6882C8.33838 12.7013 8.30432 12.7152 8.27014 12.7285H14.0001V2.72803Z"
      fill="balck"
    />
<path
      d="M1.63147 1.28198L1.25 1.25V11.2485L1.69373 11.2863C3.2749 11.4185 4.82556 11.7981 6.28894 12.4113L6.75 12.603V2.64478L6.07922 2.36621C4.6626 1.77429 3.16174 1.40845 1.63147 1.28198Z"
      fill="black"
    />
<path
      d="M0 2.72803V12.728H5.73401C5.70325 12.7159 5.67248 12.703 5.64148 12.6915C5.56995 12.6643 5.4978 12.6383 5.42578 12.6121C5.32422 12.5752 5.22278 12.5393 5.12048 12.505C5.04651 12.48 4.97229 12.4557 4.89795 12.432C4.79651 12.3987 4.6947 12.3673 4.59277 12.338C4.5177 12.316 4.44275 12.2939 4.3678 12.2729C4.26501 12.2445 4.16199 12.2175 4.05872 12.191C3.98376 12.1718 3.90869 12.1525 3.83203 12.1345C3.72729 12.1095 3.62195 12.0865 3.51672 12.064C3.44177 12.0477 3.3667 12.0312 3.29175 12.0162C3.18274 11.9948 3.07324 11.9755 2.96374 11.9563C2.89197 11.9437 2.82019 11.9313 2.74829 11.9185C2.62744 11.8993 2.50623 11.8831 2.38501 11.8667C2.32373 11.8585 2.26294 11.8488 2.20178 11.8418C2.01843 11.8196 1.83508 11.8007 1.65173 11.785L0.97876 11.728C0.848999 11.7169 0.749512 11.6082 0.75 11.478V2.72803H0Z"
      fill="black"
    />
</g>
<defs>
<clipPath id="clip0">
<rect width="14" height="14" fill="black" />
</clipPath>
</defs>
</svg>
