<svg width="16" height="16" viewBox="0 0 16 16" fill="none" xmlns="http://www.w3.org/2000/svg">
<g clip-path="url(#clip0)">
<path d="M15.9508 7.07868C15.9168 6.99733 15.8681 6.92333 15.8061 6.86133L13.8068 4.86199C13.5461 4.60199 13.1248 4.60199 12.8641 4.86199C12.6035 5.12265 12.6035 5.54465 12.8641 5.80465L13.7261 6.66665H10.0021C9.63345 6.66665 9.33545 6.9653 9.33545 7.3333C9.33545 7.7013 9.63345 7.99996 10.0021 7.99996H13.7261L12.8641 8.86196C12.6034 9.12261 12.6034 9.54461 12.8641 9.80461C12.9941 9.93527 13.1648 9.99996 13.3354 9.99996C13.5061 9.99996 13.6768 9.9353 13.8068 9.80461L15.8061 7.80527C15.8681 7.74393 15.9168 7.66993 15.9508 7.58793C16.0181 7.42533 16.0181 7.24133 15.9508 7.07868Z" fill="white"/>
<path d="M11.3348 9.33334C10.9661 9.33334 10.6681 9.632 10.6681 10V13.3333H8.00146V2.66666C8.00146 2.37266 7.80812 2.11266 7.52612 2.028L5.21078 1.33334H10.6681V4.66669C10.6681 5.03469 10.9661 5.33334 11.3348 5.33334C11.7034 5.33334 12.0014 5.03469 12.0014 4.66669V0.666687C12.0014 0.298656 11.7034 0 11.3348 0H0.668121C0.644121 0 0.622777 0.01 0.599465 0.0126563C0.568121 0.016 0.539465 0.0213125 0.509465 0.0286562C0.439465 0.0466563 0.376121 0.074 0.316809 0.111313C0.302152 0.120656 0.284152 0.121312 0.270152 0.131969C0.264777 0.136 0.262777 0.143344 0.257434 0.147344C0.184777 0.204656 0.124121 0.274656 0.0801211 0.358C0.0707773 0.376 0.0687773 0.395344 0.0614648 0.414C0.0401211 0.464656 0.0168086 0.514 0.00880859 0.57C0.00546484 0.59 0.0114648 0.608656 0.0108086 0.628C0.0101523 0.641344 0.00146484 0.653344 0.00146484 0.666656V14C0.00146484 14.318 0.226121 14.5913 0.537465 14.6533L7.20412 15.9867C7.24746 15.996 7.29146 16 7.33478 16C7.48743 16 7.63743 15.9474 7.75743 15.8487C7.91143 15.722 8.00143 15.5333 8.00143 15.3333V14.6667H11.3348C11.7034 14.6667 12.0014 14.368 12.0014 14V10C12.0014 9.632 11.7034 9.33334 11.3348 9.33334Z" fill="white"/>
</g>
<defs>
<clipPath id="clip0">
<rect width="16" height="16" fill="white"/>
</clipPath>
</defs>
</svg>
