<svg
  width="12"
  height="12"
  viewBox="0 0 20 10"
  fill="black"
  xmlns="http://www.w3.org/2000/svg"
>
<path
    d="M10.0014 6.68116L4.03516 5.10718V6.6557V7.73597C4.03516 8.95128 6.70721 9.93661 10.0032 9.93661C13.2989 9.93661 15.9714 8.95128 15.9714 7.73597C15.9714 7.7264 15.9678 7.71679 15.9675 7.70744V5.10718L10.0014 6.68116Z"
    fill="black"
  />
<path
    d="M0 3.2975L2.13141 3.95101L2.31305 3.61758L3.09607 3.56053L3.20772 3.6601L2.53581 3.79667L2.43788 4.04511C2.4377 4.04511 0.920153 6.76449 1.14304 8.09482C1.14304 8.09482 2.09029 8.57914 3.03714 8.09482L3.28877 4.45755V4.15479L4.69821 3.88225L4.59867 4.09237L3.5478 4.38528L4.03383 4.5341L10 6.10809L15.9662 4.5341L20 3.29752L10 -0.00012207L0 3.2975Z"
    fill="black"
  />
</svg>
