<svg
  width="52"
  height="48"
  viewBox="0 0 52 48"
  fill="none"
  xmlns="http://www.w3.org/2000/svg"
>
<path
    d="M35.1977 5.10729L33.5604 3.27902L35.1977 1.45097C35.5534 1.05431 35.4637 0.487553 34.9973 0.185049C34.8116 0.0646352 34.5845 -0.000437847 34.351 1.48352e-05H25.9686C25.3776 -0.00281443 24.8938 0.399394 24.8838 0.902097V8.94048H27.0127V6.5639H34.351C34.9401 6.56277 35.4167 6.15558 35.4154 5.65447C35.4149 5.45676 35.3384 5.26459 35.1977 5.10729Z"
    fill="#C2C2C2"
  />
<path
    d="M1.57828 28.5195C0.711173 28.5157 0.00452383 29.1104 0 29.8478C0 29.8537 0 29.8596 0 29.8655V47.5322H13.4384V28.5195H1.57828ZM5.05605 42.5527C5.05605 43.0527 4.57945 43.458 3.99162 43.458C3.40378 43.458 2.92718 43.0527 2.92718 42.5527V40.6072C2.92718 40.1072 3.40378 39.7018 3.99162 39.7018C4.57945 39.7018 5.05605 40.1072 5.05605 40.6072V42.5527ZM5.05605 34.975C5.05605 35.475 4.57945 35.8804 3.99162 35.8804C3.40378 35.8804 2.92718 35.475 2.92718 34.975V33.0294C2.92718 32.5294 3.40378 32.124 3.99162 32.124C4.57945 32.124 5.05605 32.5294 5.05605 33.0294V34.975ZM10.5113 42.5527C10.5113 43.0527 10.0347 43.458 9.44682 43.458C8.85899 43.458 8.38239 43.0527 8.38239 42.5527V40.6072C8.38239 40.1072 8.85899 39.7018 9.44682 39.7018C10.0347 39.7018 10.5113 40.1072 10.5113 40.6072V42.5527ZM10.5113 34.975C10.5113 35.475 10.0347 35.8804 9.44682 35.8804C8.85899 35.8804 8.38239 35.475 8.38239 34.975V33.0294C8.38239 32.5294 8.85899 32.124 9.44682 32.124C10.0347 32.124 10.5113 32.5294 10.5113 33.0294V34.975Z"
    fill="#C2C2C2"
  />
<path
    d="M25.7735 15.9023L15.5664 23.2872V47.5335H20.2233V38.1051C20.2092 37.6365 20.6444 37.247 21.1954 37.2349C21.2133 37.2345 21.2313 37.2345 21.2493 37.235H30.3991C30.9387 37.2234 31.387 37.586 31.4006 38.0448C31.4011 38.065 31.401 38.085 31.3998 38.1051V47.5335H35.9236V23.2788L25.7735 15.9023ZM30.3991 32.1423H21.1891C20.6013 32.1423 20.1247 31.7369 20.1247 31.2369C20.1247 30.737 20.6013 30.3316 21.1891 30.3316H30.3991C30.9869 30.3316 31.4635 30.737 31.4635 31.2369C31.4635 31.7369 30.9869 32.1423 30.3991 32.1423Z"
    fill="#C2C2C2"
  />
<path
    d="M50.3308 28.5195C50.3239 28.5195 50.317 28.5195 50.3101 28.5195H38.0508V47.5322H51.8884V29.8655C51.8953 29.1279 51.1978 28.5254 50.3308 28.5195ZM43.506 42.5527C43.506 43.0527 43.0294 43.458 42.4416 43.458C41.8537 43.458 41.3771 43.0527 41.3771 42.5527V40.6072C41.3771 40.1072 41.8537 39.7018 42.4416 39.7018C43.0294 39.7018 43.506 40.1072 43.506 40.6072V42.5527ZM43.506 34.975C43.506 35.475 43.0294 35.8804 42.4416 35.8804C41.8537 35.8804 41.3771 35.475 41.3771 34.975V33.0294C41.3771 32.5294 41.8537 32.124 42.4416 32.124C43.0294 32.124 43.506 32.5294 43.506 33.0294V34.975ZM48.8281 42.5527C48.8281 43.0527 48.3515 43.458 47.7637 43.458C47.1759 43.458 46.6993 43.0527 46.6993 42.5527V40.6072C46.6993 40.1072 47.1759 39.7018 47.7637 39.7018C48.3515 39.7018 48.8281 40.1072 48.8281 40.6072V42.5527ZM48.8281 34.975C48.8281 35.475 48.3515 35.8804 47.7637 35.8804C47.1759 35.8804 46.6993 35.475 46.6993 34.975V33.0294C46.6993 32.5294 47.1759 32.124 47.7637 32.124C48.3515 32.124 48.8281 32.5294 48.8281 33.0294V34.975Z"
    fill="#C2C2C2"
  />
<path
    d="M25.831 10.168L10.5986 21.2598L12.5237 23.165L25.14 14.0214C25.5385 13.7326 26.1247 13.7331 26.5225 14.0227L39.0864 23.1688L41.0556 21.2546L25.831 10.168Z"
    fill="#C2C2C2"
  />
<path d="M29.2782 39.043H22.3594V47.5307H29.2782V39.043Z" fill="#C2C2C2" />
</svg>
