<svg width="178" height="34" viewBox="0 0 178 34" fill="none" xmlns="http://www.w3.org/2000/svg">
<path d="M52.2828 34H57.9919L55.4378 19.8814V14.2627L29.5969 0L0 14.4068L13.3712 22.6186V17.1441C19.2605 13.9169 25.4403 13.4944 27.794 13.6864C31.7603 13.6864 38.7614 15.5113 41.7662 16.4237V23.4831L41.4657 23.339C26.7424 18.2966 17.8783 21.0339 17.2774 21.178C10.8171 23.1949 11.7186 26.6525 11.5683 26.6525C13.2209 31.6949 22.6859 31.6949 23.7376 31.839C31.7904 32.4153 40.0134 30.0621 43.1183 28.8136C43.0682 28.6695 42.908 28.2661 42.6676 27.8051C29.5969 31.4068 20.5826 28.6695 18.93 28.3814C16.2257 27.661 15.775 26.5085 15.775 26.2203C16.0755 23.4831 25.3902 23.339 27.3433 23.339C34.074 23.2237 41.3655 25.7881 44.17 27.0847V14.4068C35.3961 11.5254 29.5969 10.9972 27.794 11.0932C20.3422 10.978 13.6717 14.2147 11.2678 15.8475V19.161L4.50714 14.839L29.5969 2.93103L53.4847 15.2712L54.3861 19.8814L52.2828 34Z" fill="#F5F5F5"/>
<path d="M57.0904 20.1695C57.0904 21.2834 56.1487 22.1864 54.9871 22.1864C53.8255 22.1864 52.8838 21.2834 52.8838 20.1695C52.8838 19.0556 53.8255 18.1525 54.9871 18.1525C56.1487 18.1525 57.0904 19.0556 57.0904 20.1695Z" fill="#F5F5F5"/>
<path d="M74.101 20.0565C74.9455 20.2394 75.5925 20.5725 76.042 21.0558C76.5052 21.526 76.7367 22.1987 76.7367 23.0739C76.7367 23.7401 76.6005 24.3148 76.3281 24.7981C76.0557 25.2683 75.6811 25.6537 75.2043 25.9541C74.7412 26.2415 74.1827 26.457 73.5289 26.6007C72.8886 26.7313 72.2008 26.7966 71.4652 26.7966H65.172V13.2381H71.1178C74.5913 13.2381 76.3281 14.4659 76.3281 16.9216C76.3281 17.4049 76.2736 17.8229 76.1646 18.1756C76.0557 18.5283 75.9058 18.8287 75.7151 19.0769C75.5244 19.3251 75.286 19.5275 75 19.6843C74.7276 19.841 74.4279 19.9651 74.101 20.0565ZM68.196 15.7264V18.8614H71.2404C71.8807 18.8614 72.3915 18.7569 72.7729 18.5479C73.1679 18.3258 73.3654 17.9274 73.3654 17.3527C73.3654 16.7649 73.1747 16.3469 72.7933 16.0987C72.4119 15.8505 71.8534 15.7264 71.1178 15.7264H68.196ZM68.196 24.3083H71.4652C72.2144 24.3083 72.7797 24.1907 73.1611 23.9556C73.5561 23.7074 73.7536 23.2894 73.7536 22.7016C73.7536 22.2183 73.5834 21.8265 73.2428 21.526C72.9159 21.2256 72.3302 21.0754 71.4856 21.0754H68.196V24.3083Z" fill="#F5F5F5"/>
<path d="M78.9399 26.7966V13.2381H81.9639V26.7966H78.9399Z" fill="#F5F5F5"/>
<path d="M95.3674 13.2381V16.0203H91.1175V26.7966H88.1139V16.0203H83.864V13.2381H95.3674Z" fill="#F5F5F5"/>
<path d="M97.2772 26.7966V13.2381H100.301V26.7966H97.2772Z" fill="#F5F5F5"/>
<path d="M111.661 26.7966L108.801 22.4077H106.267V26.7966H103.243V13.2381H109.046C110.871 13.2381 112.268 13.6496 113.235 14.4725C114.202 15.2823 114.685 16.4122 114.685 17.8621V17.8817C114.685 18.9267 114.433 19.8018 113.929 20.5072C113.425 21.1995 112.683 21.7089 111.702 22.0355L115.033 26.7966H111.661ZM106.267 15.844V19.9194H109.046C109.863 19.9194 110.504 19.7692 110.967 19.4687C111.43 19.1553 111.661 18.6262 111.661 17.8817V17.8621C111.661 17.1437 111.43 16.6277 110.967 16.3142C110.504 16.0007 109.863 15.844 109.046 15.844H106.267Z" fill="#F5F5F5"/>
<path d="M116.684 20.6639V13.2381H119.708V20.6639C119.708 21.3432 119.796 21.9114 119.973 22.3685C120.164 22.8257 120.409 23.1915 120.709 23.4658C121.022 23.7401 121.37 23.936 121.751 24.0536C122.146 24.1711 122.555 24.2299 122.977 24.2299H122.997C123.42 24.2299 123.821 24.1711 124.203 24.0536C124.598 23.936 124.945 23.7401 125.245 23.4658C125.558 23.1915 125.803 22.8257 125.98 22.3685C126.171 21.9114 126.267 21.3432 126.267 20.6639V13.2381H129.291V20.6639C129.291 21.7742 129.127 22.7343 128.8 23.5441C128.487 24.3409 128.044 25.0006 127.472 25.5231C126.914 26.0455 126.253 26.4309 125.49 26.679C124.727 26.9142 123.896 27.0317 122.997 27.0317H122.977C122.078 27.0317 121.247 26.9142 120.484 26.679C119.721 26.4309 119.054 26.0455 118.482 25.5231C117.923 25.0006 117.481 24.3409 117.154 23.5441C116.84 22.7343 116.684 21.7742 116.684 20.6639Z" fill="#F5F5F5"/>
<path d="M130.712 13.2381H133.879L137.741 23.2502L141.582 13.2381H144.749L139.355 26.7966H136.106L130.712 13.2381Z" fill="#F5F5F5"/>
<path d="M145.466 20.0174V19.9978C145.466 18.9789 145.629 18.0384 145.956 17.1763C146.297 16.3142 146.78 15.5762 147.407 14.9623C148.033 14.3484 148.796 13.8716 149.695 13.532C150.594 13.1793 151.609 13.003 152.74 13.003H152.76C153.7 13.003 154.592 13.1336 155.437 13.3948C156.281 13.643 157.037 14.061 157.705 14.6488L156.05 16.8237C155.137 16.0791 154.04 15.7068 152.76 15.7068H152.74C152.086 15.7068 151.493 15.8179 150.962 16.0399C150.444 16.262 150.002 16.5624 149.634 16.9412C149.266 17.32 148.98 17.7707 148.776 18.2932C148.585 18.8156 148.49 19.3838 148.49 19.9978V20.0174C148.49 20.6313 148.585 21.206 148.776 21.7416C148.98 22.264 149.266 22.7212 149.634 23.1131C150.002 23.4919 150.444 23.7923 150.962 24.0144C151.493 24.2234 152.086 24.3279 152.74 24.3279H152.76C153.455 24.3279 154.068 24.2299 154.599 24.034C155.13 23.838 155.614 23.5637 156.05 23.2111L157.705 25.3859C156.465 26.4831 154.817 27.0317 152.76 27.0317H152.74C151.609 27.0317 150.594 26.8619 149.695 26.5223C148.796 26.1696 148.033 25.6863 147.407 25.0724C146.78 24.4454 146.297 23.7074 145.956 22.8584C145.629 21.9963 145.466 21.0493 145.466 20.0174Z" fill="#F5F5F5"/>
<path d="M159.572 13.2381H162.596V18.6262H169.012V13.2381H172.036V26.7966H169.012V21.3693H162.596V26.7966H159.572V13.2381Z" fill="#F5F5F5"/>
<path d="M174.976 26.7966V13.2381H178V26.7966H174.976Z" fill="#F5F5F5"/>
</svg>
